<!-- sample rectangle -->

<svg xmlns="http://www.w3.org/2000/svg" viewBox="3.6289 8.4819 90.1573 82.6542" width="90.1573px" height="82.6542px">
  <g transform="matrix(0.34860101342201233, 0, 0, 0.34860101342201233, 5.891607761383057, 11.661333084106449)" style="">
    <g style="" transform="matrix(1.111545, 0, 0, 1.111545, -6.490648, -9.120405)">
      <path d="M 12.723 38.692 C 18.717 30.388 17.634 31.646 22.255 24.935 C 26.877 18.225 43.775 13.863 54.751 12.856 C 65.728 11.849 75.765 11.346 81.109 7.32 C 86.453 3.293 89.991 -0.188 95.48 1.573 C 100.968 3.335 104.506 16.379 102.34 18.099 C 100.174 19.818 89.919 30.681 83.276 30.64 C 76.632 30.598 61.9 24.6 58.795 23.551 C 55.69 22.503 50.924 21.79 46.952 24.097 C 42.981 26.403 40.309 25.606 36.842 28.291 C 33.376 30.975 24.205 39.825 20.595 40.16 C 16.984 40.496 12.723 38.692 12.723 38.692 Z" fill="#87cbbc" paint-order="fill markers stroke"/>
      <path d="M 15.934 35.939 C 21.049 35.96 25.881 33.502 30.889 29.384 C 35.898 25.266 42.141 19.55 51.77 18.915 C 61.4 18.28 68.313 22.726 73.815 25.287 C 79.318 27.847 85.42 24.549 89.37 22.214 C 93.321 19.878 96.319 13.65 97.342 12.257 C 98.365 10.864 97.73 7.668 100.728 10.331 C 103.726 12.995 96.954 27.52 89.017 29.322 C 81.081 31.125 76.037 30.224 69.442 27.786 C 62.846 25.348 53.393 21.66 48.702 23.258 C 44.011 24.856 37.415 27.745 35.016 29.609 C 32.618 31.473 27.151 38.09 21.93 39.156 C 16.71 40.221 13.677 39.934 13.994 39.34 C 14.312 38.746 15.934 35.939 15.934 35.939 L 15.934 35.939 Z" fill="#ddde65" paint-order="fill markers stroke"/>
      <path d="M 103.495 17.302 C 103.495 17.302 98.079 22.545 95.191 25.607 C 92.302 28.668 83.781 31.185 80.532 31.101 C 77.282 31.017 64.139 25.732 64.139 25.732 C 64.139 25.732 66.378 40.328 63.706 44.648 C 61.034 48.968 54.102 49.891 50.635 48.968 C 47.169 48.046 40.959 39.322 40.092 36.931 C 39.226 34.54 48.469 23.215 48.469 23.215 C 48.469 23.215 39.37 26.319 37.348 27.745 C 35.326 29.171 28.755 34.792 25.794 36.847 C 22.833 38.902 17.778 39.783 13.662 39.867 C 13.662 39.867 11.495 49.639 14.528 55.176 C 17.561 60.712 36.77 68.891 40.598 71.24 C 44.425 73.589 70.711 75.225 73.022 74.763 C 75.332 74.302 85.658 54.84 85.658 54.84 C 85.658 54.84 92.152 45.599 95.822 40.281 C 92.589 45.727 89.211 51.193 88.157 52.02 C 84.088 58.737 81.423 66.948 77.938 74.266 C 83.141 75.484 89.548 75.935 89.548 75.935 C 89.548 75.935 90.44 65.652 91.372 64.073 C 92.304 62.494 92.071 60.69 96.265 60.509 C 100.458 60.329 104.302 62.832 104.302 64.231 C 104.302 65.629 104.962 78.212 104.651 79.678 C 104.341 81.144 110.786 85.294 117.503 86.805 C 124.22 88.316 142.236 102.072 142.236 102.072 C 142.236 102.072 143.401 93.074 148.681 90.796 C 153.962 88.519 155.903 86.557 159.243 89.759 C 162.582 92.962 165.183 94.382 164.912 98.667 C 164.64 102.952 160.679 108.544 158.932 110.709 C 157.185 112.874 160.99 115.084 163.397 117.971 C 165.805 120.858 171.416 140.793 171.3 147.627 C 171.183 154.46 162.292 180.462 151.265 184.747 C 140.238 189.032 136.938 189.031 136.938 189.031 C 136.938 189.031 141.713 177.169 141.675 173.922 C 141.636 170.674 132.045 151.325 120.048 151.37 C 108.05 151.416 92.48 152.543 88.481 168.013 C 84.481 183.484 95.043 196.586 110.884 202.585 C 126.726 208.584 149.867 208.854 165.476 200.961 C 181.084 193.068 191.878 173.335 194.752 162.308 C 197.625 151.28 202.47 118.045 201.693 101.785 C 200.917 85.525 194.622 51.705 179.363 43.361 C 164.104 35.016 146.903 23.177 125.004 23.944 C 103.106 24.71 102.756 28.319 102.756 28.319 C 102.756 28.319 100.535 32.152 98.998 34.825 C 100.889 29.467 103.495 17.302 103.495 17.302 L 103.495 17.302 Z" fill="#bbe773" paint-order="fill markers stroke"/>
      <path d="M 52.287 49.621 C 44.655 48.368 39.692 42.047 40.239 36.202 C 40.787 30.358 42.841 23.202 53.656 22.784 C 64.471 22.367 66.901 31.61 66.799 37.435 C 66.696 43.259 63.171 50.674 52.287 49.621 L 52.287 49.621 Z" fill="#ae89ae" paint-order="fill markers stroke"/>
      <path d="M 96.358 60.097 C 96.017 60.098 95.662 60.108 95.293 60.126 C 89.392 60.419 91.372 62.787 90.13 67.433 C 88.887 72.078 89.897 73.567 90.945 78.551 C 91.993 83.535 89.042 88.136 86.053 91.608 C 83.063 95.081 71.182 97.922 65.008 97.877 C 58.835 97.832 53.787 102.05 51.846 105.906 C 51.846 105.906 53.166 106.83 55.457 107.372 C 57.748 107.913 58.757 109.875 58.174 112.897 C 57.592 115.919 57.981 116.167 60.233 116.731 C 62.485 117.295 79.685 111.589 88.848 106.605 C 98.012 101.621 103.758 91.698 104.418 86.444 C 105.078 81.189 106.865 65.832 105.157 63.825 C 103.555 61.943 101.475 60.081 96.358 60.097 L 96.358 60.097 Z M 156.465 87.726 C 155.343 87.773 154.009 88.115 152.395 88.832 C 143.789 92.654 141.351 104.226 142.041 109.626 C 142.731 115.025 144.158 129.218 143.237 128.977 C 142.317 128.736 131.272 126.786 129.57 128.203 C 127.867 129.619 124.784 132.612 126.073 133.976 C 127.361 135.339 138.681 140.658 138.681 140.658 C 138.681 140.658 142.824 151.804 148.254 152.926 C 153.684 154.049 158.423 150.44 158.423 150.44 C 158.423 150.44 156.307 125.663 157.181 121.895 C 158.056 118.126 157.779 111.711 160.08 110.936 C 162.381 110.161 165.418 107.942 166.016 105.056 C 166.615 102.169 164.728 97.144 164.728 97.144 C 162.223 92.844 161.328 87.521 156.465 87.726 L 156.465 87.726 Z" fill="#ddde65" paint-order="fill markers stroke"/>
      <path d="M 113.72 149.858 L 111.743 166.068 L 123.463 166.971 L 131.087 158.578 C 125.392 151.853 113.72 149.858 113.72 149.858 L 113.72 149.858 Z M 95.458 157.102 C 85.762 162.378 88.022 172.794 88.022 172.794 L 106.378 177.331 L 106.99 172.574 L 101.436 166.752 L 95.458 157.102 Z M 116.732 167.298 L 109.343 170.688 L 116.591 176.128 L 118.991 174.762 L 116.732 167.298 Z M 142.431 172.656 C 142.431 172.656 128.311 173.723 127.276 173.641 C 126.24 173.559 126.569 178.753 126.569 178.753 L 140.078 184.138 L 142.431 172.656 Z M 118.662 180.174 L 111.46 186.544 L 120.78 189.934 L 123.181 180.913 L 118.662 180.174 Z M 146.808 187.282 L 138.901 190.125 L 141.348 206.746 L 153.82 203.41 C 153.82 203.41 149.35 193.706 149.067 192.066 C 148.785 190.426 146.808 187.282 146.808 187.282 Z M 111.884 188.649 L 106.943 194.745 L 103.13 197.943 L 117.486 204.122 L 122.38 191.819 L 111.884 188.649 Z" fill="#ae89ae" paint-order="fill markers stroke"/>
      <path d="M 198.514 80.723 C 198.514 80.723 184.909 87.286 174.532 93.581 C 164.155 99.876 169.13 103.147 174.796 102.458 C 180.462 101.769 199.733 96.47 200.622 96.317 L 198.514 80.723 Z M 200.54 117.214 C 200.54 117.214 190.394 117.922 180.972 119.051 C 171.551 120.18 173.034 121.959 176.328 123.509 C 179.622 125.058 196.489 123.031 199.256 123.165 L 200.54 117.214 Z M 178.944 139.198 C 171.783 139.035 177.222 149.105 178.954 150.753 C 180.864 152.57 189.528 156.568 194.733 158.52 L 198.982 143.137 C 198.982 143.137 192.558 142.333 181.588 139.597 C 180.56 139.341 179.684 139.214 178.944 139.198 L 178.944 139.198 Z" fill="#3bc57d" paint-order="fill markers stroke"/>
      <path d="M 14.085 43.503 C 17.811 46.003 33.47 51.593 42.785 52.341 C 52.101 53.088 63.641 52.67 71.087 52.83 C 86.456 53.161 84.063 72.676 70.8 75.716 C 57.536 78.756 34.845 65.326 24.376 61.977 C 13.908 58.627 9.871 47.832 14.085 43.503 L 14.085 43.503 Z" fill="#ddde65" paint-order="fill markers stroke"/>
      <path d="M 179.527 162.443 C 174.123 162.391 173.114 164.073 175.132 165.58 C 177.438 167.302 184.818 170.823 189.594 172.966 L 193.613 165.887 C 193.613 165.887 189.759 163.247 182.116 162.577 C 181.161 162.493 180.299 162.45 179.527 162.443 L 179.527 162.443 Z M 163.175 173.846 C 163.175 173.846 157.443 179.05 157.706 181.002 C 157.97 182.953 163.899 192.961 169.894 197.132 C 169.894 197.132 181.26 188.98 180.107 187.45 C 178.954 185.919 163.175 173.846 163.175 173.846 L 163.175 173.846 Z" fill="#8d949d" paint-order="fill markers stroke"/>
      <path d="M 139.274 25.373 L 122.841 25.565 C 122.841 25.565 118.685 61.03 117.599 65.556 C 116.513 70.081 116.56 78.831 119.629 73.236 C 122.699 67.641 131.53 44.656 131.53 44.656 L 139.274 25.373 Z M 112.829 25.785 L 103.148 26.333 L 99.607 40.185 C 99.087 48.852 102.156 57.19 105.179 51.622 C 108.201 46.054 112.829 25.785 112.829 25.785 L 112.829 25.785 Z M 151.081 28.774 L 145.886 43.256 C 145.886 43.256 135.26 70.219 132.71 75.622 C 130.16 81.025 132.191 90.762 137.669 82.369 C 143.147 73.976 151.411 60.673 151.411 60.673 L 167.562 36.893 L 151.081 28.774 Z M 179.367 46.685 L 168.317 59.878 C 168.317 59.878 156.889 76.389 153.725 81.134 C 150.986 87.416 155.614 84.975 159.533 83.384 C 163.453 81.794 186.592 63.992 187.442 63.087 C 188.292 62.182 190.937 60.399 189.095 58.314 C 187.254 56.23 179.367 46.685 179.367 46.685 L 179.367 46.685 Z" fill="#45c9bb" paint-order="fill markers stroke"/>
      <path d="M 97.769 68.959 C 95.917 68.967 93.429 69.436 91.308 70.428 C 87.095 73.532 92.674 74.665 97.277 73.895 C 101.88 73.124 101.373 70.269 100.203 69.431 C 99.764 69.116 98.881 68.955 97.769 68.959 Z M 92.701 78.963 C 92.701 78.963 90.907 83.721 92.389 83.97 C 93.872 84.22 99.177 84.401 98.826 81.637 C 98.475 78.872 96.446 78.986 92.701 78.963 Z M 90.673 88.615 C 87.396 88.66 88.098 91.855 88.098 91.855 C 91.375 95.843 95.159 96.206 96.095 93.917 C 97.031 91.629 93.949 88.57 90.673 88.615 L 90.673 88.615 Z M 155.076 88.98 C 154.483 88.982 154.07 89.077 154.028 89.324 C 153.858 90.311 154.113 99.72 156.834 101.745 C 159.555 103.769 162.021 95.25 160.278 89.793 C 160.278 89.793 156.858 88.974 155.076 88.98 L 155.076 88.98 Z M 148.203 91.571 C 148.203 91.571 143.569 97.892 144.207 100.164 C 144.845 102.436 148.416 105.597 151.222 104.189 C 154.028 102.782 149.521 93.547 148.203 91.571 L 148.203 91.571 Z M 84.281 95.319 C 82.844 95.354 80.335 97.679 80.335 97.679 C 80.842 100.987 83.651 103.819 86.537 103.003 C 89.424 102.187 86.031 96.274 84.821 95.458 C 84.67 95.356 84.487 95.314 84.281 95.319 L 84.281 95.319 Z M 74.327 98.449 L 70.231 99.151 C 69.646 103.909 71.284 107.104 73.742 106.447 C 76.2 105.79 74.327 98.449 74.327 98.449 Z M 147.111 108.777 C 145.416 108.772 143.665 109.057 142.549 109.103 C 142.549 109.103 141.613 114.413 146.63 113.993 C 151.647 113.573 153.092 113.549 151.647 110.684 C 150.879 109.162 149.031 108.783 147.111 108.777 Z M 147.893 118.37 C 146.613 118.36 145.079 118.503 143.484 118.586 C 143.484 118.586 143.272 123.821 144.08 123.895 C 144.888 123.969 150.967 123.599 151.264 120.66 C 151.45 118.824 150.026 118.386 147.893 118.37 Z M 145.822 128.727 C 144.297 128.767 143.994 130.982 143.994 130.982 C 147.821 135.97 148.756 144.366 151.094 140.218 C 153.433 136.069 149.181 130.044 146.8 128.957 C 146.428 128.788 146.104 128.72 145.822 128.727 L 145.822 128.727 Z" fill="#9dd245" paint-order="fill markers stroke"/>
      <path d="M 221.928 206.412 C 217.978 202.638 211.208 196.586 206.883 192.964 C 202.558 189.342 197.543 185.034 195.739 183.391 C 193.076 180.966 192.273 180.557 191.473 181.221 C 190.931 181.671 190.043 181.868 189.498 181.659 C 188.276 181.19 185.684 185.335 185.684 187.759 C 185.684 188.739 185.181 189.644 184.489 189.91 C 183.832 190.162 181.293 192.383 178.847 194.846 C 169.466 204.292 152.119 210.111 133.028 210.215 C 121.732 210.277 117.485 209.263 106.358 203.851 C 99.852 200.687 97.657 199.198 93.654 195.23 C 90.583 192.186 88.084 188.934 86.816 186.331 C 85.058 182.723 84.816 181.484 84.816 176.073 C 84.816 170.384 85.008 169.517 87.352 164.608 C 93.484 151.767 103.115 146.645 118.002 148.307 C 126.429 149.248 129.692 150.846 135.276 156.768 C 140.517 162.326 142.806 166.579 143.949 172.885 C 144.821 177.692 144.469 180.444 142.558 183.766 C 141.855 184.989 141.462 185.989 141.685 185.989 C 143.057 185.989 152.494 180.038 154.836 177.696 C 157.943 174.59 161.973 168.352 164.274 163.09 L 165.774 159.661 L 163.932 158.3 C 162.92 157.552 161.384 156.244 160.52 155.393 C 159.049 153.944 158.824 153.911 156.964 154.873 C 151.026 157.944 143.328 153.969 139.81 146.016 C 138.664 143.426 137.962 142.942 129.138 138.67 C 115.549 132.09 105.797 128.432 104.168 129.303 C 103.457 129.684 100.351 130.629 97.265 131.403 C 90.567 133.083 89.261 133.702 89.261 135.192 C 89.261 137.102 86.462 142.223 85.418 142.223 C 83.641 142.223 83.508 140.014 85.118 137.218 L 86.682 134.5 L 85.065 134.947 C 69.783 139.175 66.011 139.809 66.011 138.148 C 66.011 137.262 76.175 133.225 87.678 129.542 C 93.389 127.714 97.93 126.006 97.771 125.748 C 97.611 125.489 96.637 125.066 95.606 124.808 C 94.575 124.549 89.208 122.383 83.678 119.993 L 73.624 115.65 L 70.152 116.969 C 65.878 118.593 60.062 118.698 57.91 117.191 C 56.682 116.331 56.39 115.565 56.556 113.641 L 56.767 111.188 L 47.907 108.589 L 39.047 105.991 L 36.583 107.622 C 35.228 108.519 32.176 110.234 29.8 111.433 C 25.858 113.422 25.388 113.518 24.398 112.528 C 23.408 111.539 23.431 111.335 24.66 110.196 C 25.4 109.51 28.095 108.087 30.648 107.034 C 33.201 105.981 35.173 105.002 35.03 104.86 C 34.888 104.717 30.069 103.521 24.322 102.201 C 18.575 100.882 13.577 99.62 13.216 99.397 C 12.855 99.174 12.74 98.271 12.961 97.392 C 13.293 96.07 12.839 95.432 10.347 93.718 C 6.875 91.329 0.647 84.579 0.146 82.662 C -0.536 80.054 1.13 80.7 5.993 84.931 C 8.725 87.308 12.394 90.089 14.146 91.111 C 15.898 92.133 17.899 93.701 18.591 94.594 C 19.626 95.928 21.257 96.485 27.715 97.71 C 32.041 98.531 39.27 100.301 43.78 101.644 L 51.981 104.086 L 53.354 102.137 C 54.109 101.064 55.666 99.213 56.813 98.022 C 58.882 95.875 58.959 95.857 65.781 95.84 C 69.565 95.831 73.999 95.464 75.632 95.024 C 81.99 93.312 88.34 86.839 89.081 81.315 C 89.494 78.231 89.471 78.215 83.107 77.331 C 79.777 76.869 77.375 76.976 73.533 77.757 C 66.868 79.113 58.271 78.588 49.272 76.275 C 45.52 75.311 42.365 74.522 42.263 74.522 C 42.16 74.522 42.076 75.006 42.076 75.598 C 42.076 77.159 39.753 76.505 39.44 74.856 C 38.943 72.236 36.142 71.585 35.798 74.009 C 35.655 75.019 35.11 75.548 34.212 75.548 C 33.122 75.548 32.844 75.092 32.844 73.307 C 32.844 71.369 31.75 69.781 30.389 69.745 C 30.168 69.739 29.636 70.504 29.207 71.445 C 28.779 72.385 27.921 73.154 27.301 73.154 C 26.371 73.154 26.248 72.681 26.604 70.46 C 27.181 66.847 26.025 66.299 23.548 69.011 C 20.606 72.232 18.865 70.346 21.32 66.598 C 23.037 63.979 21.608 62.971 18.529 64.629 C 15.931 66.029 14.621 65.567 15.947 63.718 C 17.596 61.421 17.57 60.834 15.722 58.638 C 11.144 53.198 9.529 44.572 11.909 38.278 C 14.171 32.294 19.441 23.868 23.242 20.156 C 26.878 16.606 32.909 13.021 37.631 11.603 C 39.135 11.152 46.521 10.541 54.043 10.247 C 69.602 9.639 71.989 9.059 81.244 3.633 C 89.618 -1.276 95.359 -1.214 100.415 3.842 C 103.578 7.005 105.015 11.195 105.485 18.617 C 105.693 21.908 106.052 24.596 106.281 24.591 C 107.224 24.567 108.124 23.461 108.776 21.524 C 109.595 19.096 111.392 18.806 111.71 21.05 C 111.897 22.371 112.284 22.594 114.077 22.418 C 115.716 22.257 116.313 21.806 116.619 20.498 C 117.129 18.319 119.44 18.214 120.368 20.327 C 121.336 22.535 123.565 22.261 124.99 19.759 C 126.369 17.336 128.462 17.277 128.801 19.65 C 128.921 20.493 129.229 21.205 129.485 21.233 C 129.741 21.261 130.58 21.403 131.349 21.549 C 132.397 21.748 132.945 21.29 133.538 19.72 C 134.62 16.852 136.22 17.527 137.402 21.353 C 137.984 23.236 140.87 22.866 141.818 20.786 C 142.825 18.576 144.203 18.961 144.657 21.58 C 145.108 24.179 147.592 24.661 149.35 22.491 C 150.791 20.712 152.175 21.23 152.175 23.549 C 152.175 24.739 152.742 25.349 154.381 25.92 C 156.341 26.603 156.712 26.523 157.713 25.196 C 159.256 23.151 161.065 23.937 161.065 26.653 C 161.065 29.363 162.722 30.027 164.38 27.98 C 166.295 25.615 168.197 26.633 167.69 29.753 C 167.362 31.776 167.565 32.318 169.006 33.262 C 170.621 34.321 170.763 34.302 171.739 32.909 C 172.788 31.412 176.11 30.84 176.11 32.157 C 176.11 32.552 175.626 33.812 175.034 34.956 C 173.95 36.814 174.022 37.017 175.543 38.169 C 176.47 38.875 176.953 38.874 178.091 38.163 C 179.981 36.982 181.348 38.208 180.308 40.152 C 179.713 41.262 179.98 41.865 181.877 43.704 C 183.306 45.09 184.334 45.64 184.621 45.175 C 184.874 44.767 185.678 44.432 186.408 44.432 C 187.903 44.432 188.22 46.41 186.931 47.698 C 186.314 48.315 186.414 48.821 187.359 49.865 C 188.47 51.092 188.733 51.128 190.025 50.223 C 193.179 48.014 195.126 50.208 192.496 53.008 C 190.991 54.61 190.977 54.728 192.139 56.012 C 193.096 57.069 193.6 57.191 194.554 56.595 C 197.447 54.788 199.375 58.392 196.528 60.282 C 195.321 61.084 195.194 61.5 195.808 62.646 C 196.367 63.691 197.053 63.964 198.559 63.743 C 201.355 63.333 202.056 64.806 199.933 66.632 C 198.39 67.959 198.306 68.302 199.009 70.388 C 199.44 71.67 200.444 72.929 201.281 73.239 C 202.987 73.87 203.232 75.346 201.825 76.514 C 201.298 76.952 201.033 77.932 201.234 78.7 C 201.508 79.749 201.979 79.998 203.137 79.708 C 204.836 79.281 206.613 80.82 205.85 82.056 C 205.593 82.472 204.701 83.071 203.869 83.387 C 202.607 83.867 202.403 84.372 202.642 86.422 C 202.898 88.613 203.146 88.882 204.906 88.882 C 207.547 88.882 207.688 91.345 205.104 92.328 C 203.888 92.79 203.455 93.344 203.736 94.076 C 203.962 94.666 204.148 95.549 204.148 96.039 C 204.148 96.528 204.763 97.09 205.515 97.286 C 207.371 97.772 207.345 100.515 205.479 101.003 C 204.336 101.302 204.114 101.828 204.283 103.845 C 204.462 105.989 204.746 106.35 206.41 106.54 C 207.467 106.662 208.517 107.245 208.744 107.836 C 209.236 109.117 207.178 110.835 205.791 110.303 C 205.119 110.045 204.831 110.469 204.831 111.718 C 204.831 113.163 205.155 113.501 206.541 113.501 C 207.795 113.501 208.251 113.865 208.251 114.868 C 208.251 115.855 207.795 116.236 206.614 116.236 C 203.741 116.236 203.197 120.243 205.835 121.971 C 207.707 123.198 207.512 125.126 205.515 125.126 C 204.497 125.126 203.464 126.368 203.464 127.592 C 203.464 127.759 204.233 128.188 205.173 128.545 C 207.422 129.4 207.431 131.281 205.186 131.281 C 203.001 131.281 201.947 134.451 203.705 135.736 C 205.318 136.916 205.095 138.67 203.3 138.926 C 201.305 139.211 200.904 141.246 202.747 141.728 C 203.614 141.955 204.147 142.657 204.147 143.575 C 204.147 144.787 203.807 145.016 202.267 144.835 C 200.756 144.659 200.343 144.918 200.168 146.154 C 199.991 147.399 200.277 147.693 201.666 147.693 C 203.752 147.693 204.553 148.774 203.451 150.102 C 202.834 150.845 202.308 150.907 201.282 150.358 C 199.683 149.503 199.606 149.554 199.022 151.883 C 198.63 153.442 198.847 153.773 200.676 154.41 C 202.252 154.96 202.78 155.564 202.78 156.816 C 202.78 158.733 201.741 159.322 199.214 158.839 C 196.674 158.353 196.066 160.669 198.035 163.332 C 199.761 165.667 199.241 167.108 196.838 166.648 C 195.531 166.399 195.018 166.698 194.523 167.999 C 194.174 168.919 194.087 170.467 194.331 171.439 C 194.644 172.683 194.437 173.455 193.635 174.042 C 192.641 174.769 193.616 175.743 201.22 181.629 C 216.594 193.527 231.657 207.18 232.564 210.039 C 233.058 211.595 231.796 213.356 230.221 213.308 C 229.609 213.289 225.877 210.186 221.928 206.412 L 221.928 206.412 Z M 139.498 203.681 C 139.77 203.409 138.679 192.759 138.35 192.482 C 138.244 192.392 135.848 192.607 133.028 192.959 C 130.207 193.31 126.578 193.499 124.964 193.377 C 122.303 193.176 121.997 193.315 121.673 194.872 C 121.476 195.816 120.874 197.804 120.334 199.291 C 119.794 200.777 119.583 202.22 119.864 202.498 C 120.946 203.564 127.466 204.376 133.228 204.161 C 136.536 204.038 139.357 203.822 139.498 203.681 Z M 151.315 201.438 C 151.449 201.303 150.929 199.32 150.158 197.032 C 148.566 192.305 148.5 191.905 149.412 192.468 C 149.773 192.691 150.895 194.716 151.905 196.968 C 153.478 200.472 153.95 201.003 155.181 200.651 C 157.446 200.004 165.852 196.737 165.852 196.504 C 165.852 196.388 164.739 194.268 163.378 191.792 C 162.017 189.316 161.094 187.1 161.326 186.868 C 161.559 186.635 161.838 186.573 161.948 186.73 C 164.566 190.487 168.064 194.878 168.439 194.876 C 169.426 194.871 173.1 192.264 175.65 189.759 L 178.267 187.188 L 176.028 184.879 C 173.507 182.278 173.885 181.866 176.854 183.981 C 177.944 184.757 179.153 185.196 179.54 184.957 C 180.567 184.322 185.554 177.449 186.51 175.35 C 187.24 173.748 187.148 173.416 185.662 172.295 C 183.687 170.806 184.228 169.799 186.382 170.952 C 187.207 171.394 188.124 171.495 188.42 171.179 C 189.084 170.468 192.523 160.913 192.519 159.791 C 192.519 159.343 190.248 157.812 187.475 156.389 C 184.703 154.966 181.895 153.206 181.237 152.478 C 180.358 151.507 181.309 151.78 184.808 153.504 C 193.169 157.624 193.086 157.612 193.59 154.676 C 193.829 153.28 194.473 150.335 195.021 148.131 C 195.57 145.926 195.924 144.056 195.809 143.975 C 195.694 143.893 193.445 143.445 190.813 142.978 C 185.402 142.02 180.213 139.959 180.213 138.769 C 180.213 138.331 180.686 138.155 181.264 138.377 C 183.881 139.381 189.752 140.802 192.933 141.201 L 196.421 141.639 L 197.174 136.631 C 198.896 125.178 198.918 124.451 197.544 124.343 C 195.819 124.207 191.504 124.048 182.606 123.762 C 181.262 123.719 178.969 123.315 183.974 123.037 C 188.863 122.765 194.172 122.512 195.77 122.469 C 198.314 122.401 198.677 122.197 198.677 120.838 L 198.677 119.285 L 189.103 119.548 C 182.088 119.741 179.529 119.597 179.529 119.009 C 179.529 118.568 179.816 118.385 180.167 118.601 C 180.518 118.818 183.672 118.684 187.176 118.303 C 190.681 117.923 194.779 117.514 196.283 117.395 L 199.019 117.179 L 198.779 107.988 C 198.646 102.934 198.405 98.579 198.241 98.312 C 198.078 98.044 197.109 98.145 196.088 98.537 C 193.103 99.683 180.231 102.394 175.768 102.817 C 170.856 103.283 172.528 102.68 182.265 100.475 C 193.123 98.016 197.993 96.299 197.993 94.931 C 197.993 92.485 196.445 83.412 196.029 83.422 C 195.793 83.428 190.599 85.994 184.487 89.124 C 178.375 92.254 173.374 94.578 173.374 94.289 C 173.374 93.435 176.607 91.392 185.684 86.512 C 190.385 83.984 194.574 81.634 194.993 81.29 C 195.546 80.836 195.429 79.494 194.566 76.396 C 193.518 72.631 190.072 63.693 189.391 62.972 C 189.253 62.825 187.977 63.753 186.557 65.035 C 180.452 70.544 164.216 81.877 160.483 83.234 C 158.452 83.972 161.393 81.146 165.69 78.23 C 175.042 71.883 187.735 61.96 187.735 60.995 C 187.735 59.221 178.647 48.308 177.97 49.269 C 177.857 49.43 176.064 51.716 173.986 54.348 C 166.175 64.244 161.186 70.913 157.998 75.719 C 156.19 78.445 154.442 80.676 154.115 80.676 C 152.191 80.676 162.334 65.163 171.346 54.321 C 174.342 50.716 176.794 47.631 176.794 47.466 C 176.794 47.054 171.652 42.321 169.019 40.486 C 167.106 39.154 165.929 38.315 163.953 36.953 C 160.261 34.408 151.703 30.259 150.751 31.237 C 150.459 31.536 148.464 37.013 146.317 43.407 C 140.781 59.894 138.911 64.846 136.163 70.304 C 134.019 74.562 132.344 76.844 132.344 75.507 C 132.344 75.253 133.534 72.388 134.988 69.141 C 136.442 65.895 139.556 57.545 141.907 50.587 C 144.258 43.629 146.915 36.485 147.811 34.711 C 148.707 32.937 149.44 31.188 149.44 30.825 C 149.44 30.2 139.316 27.591 138.921 28.114 C 138.818 28.251 137.95 30.516 136.993 33.149 C 136.036 35.782 134.013 41.013 132.498 44.775 C 130.983 48.536 128.437 54.998 126.841 59.135 C 123.844 66.899 120.049 74.764 119.543 74.259 C 119.385 74.1 119.875 72.479 120.632 70.656 C 122.702 65.671 127.317 53.348 128.276 50.245 C 128.741 48.741 131.077 43.272 133.468 38.092 C 135.858 32.912 137.814 28.409 137.814 28.086 C 137.814 27.27 128.291 26.453 125.308 27.013 L 122.864 27.471 L 122.436 32.02 C 122.2 34.521 121.549 39.417 120.988 42.899 C 120.428 46.381 119.532 52.962 118.997 57.523 C 118.463 62.085 117.819 66.007 117.567 66.238 C 116.721 67.013 117.932 53.766 119.684 43.065 C 120.639 37.235 121.597 31.311 121.813 29.901 L 122.206 27.336 L 117.188 27.342 C 114.428 27.347 110.564 27.541 108.602 27.777 L 105.033 28.206 L 103.924 32.045 C 101.622 40.017 97.623 46.133 90.906 51.955 C 88.601 53.953 88.001 55.027 87.278 58.452 C 86.802 60.708 85.352 64.674 84.055 67.264 C 82.759 69.855 81.785 72.044 81.89 72.13 C 81.995 72.215 83.679 72.489 85.631 72.738 L 89.181 73.191 L 89.392 70.319 C 89.932 62.982 92.496 69.094 93.18 79.35 C 93.583 85.392 92.456 88.291 87.674 93.499 C 83.792 97.728 79.175 99.809 73.655 99.818 C 70.8 99.823 68.996 100.161 68.342 100.815 C 67.501 101.655 66.965 101.669 64.8 100.906 C 61.912 99.889 59.75 100.411 57.292 102.72 C 55.165 104.718 55.328 105.119 58.659 106.071 C 62.303 107.113 63.275 107.844 63.275 109.541 C 63.275 110.406 62.544 111.16 61.224 111.659 C 60.095 112.085 59.172 112.87 59.172 113.403 C 59.172 114.791 66.481 113.877 68.776 112.202 C 69.733 111.504 72.195 110.703 74.247 110.421 C 83.84 109.106 96.736 99.956 100.276 91.954 C 100.984 90.354 102.257 85.163 103.105 80.417 C 104.696 71.521 105.874 69.537 106.76 74.262 C 107.365 77.489 106.622 86.199 105.303 91.326 C 104.73 93.555 103.13 97.033 101.748 99.055 C 98.987 103.093 92.137 108.934 86.979 111.648 C 83.109 113.684 82.787 113.375 93.023 117.455 C 102.354 121.175 113.763 125.877 120.547 128.799 C 125.684 131.012 126.189 131.113 126.189 129.934 C 126.189 129.222 127.189 127.926 128.412 127.054 C 130.238 125.751 131.505 125.468 135.526 125.468 L 140.418 125.468 L 140.043 116.497 C 139.715 108.634 139.863 106.739 141.243 101.156 C 142.62 95.582 143.168 94.434 145.633 91.97 C 148.881 88.722 153.764 86.146 156.665 86.15 C 161.225 86.156 165.718 91.322 166.045 96.934 C 166.17 99.06 165.972 99.482 164.853 99.482 C 164.102 99.482 163.141 98.73 162.671 97.773 C 162.209 96.832 161.245 94.832 160.529 93.328 C 159.762 91.718 158.522 90.342 157.514 89.984 C 152.826 88.318 146.871 92.356 145.363 98.225 C 143.475 105.572 143.875 121.094 146.148 128.695 C 146.727 130.633 146.709 131.478 146.071 132.246 C 144.865 133.699 141.39 133.055 139.221 130.977 C 137.041 128.889 133.553 128.258 129.543 130.361 C 125.441 132.513 130.575 133.552 133.461 134.977 C 139.13 137.777 140.322 138.815 140.891 140.573 C 142.629 145.937 148.276 151.113 152.39 151.113 C 154.835 151.113 156.439 149.309 155.963 147.096 C 152.929 133.015 152.815 123.136 155.571 112.905 C 156.506 109.432 158.919 107.566 161.019 108.69 C 162.637 109.556 163.005 111.815 161.429 111.211 C 159.214 110.361 159.999 112.062 163.859 116.476 C 170.533 124.11 173.318 131.18 173.87 141.894 C 174.47 153.526 171.565 163.77 164.721 174.155 C 159.245 182.466 156.192 184.758 144.311 189.485 C 141.622 190.554 139.562 191.779 139.611 192.279 C 139.708 193.271 141.29 201.617 141.612 202.841 C 141.763 203.414 143.05 203.364 146.444 202.653 C 148.988 202.12 151.179 201.573 151.314 201.438 L 151.315 201.438 Z M 136.48 100.693 C 135.935 100.478 132.855 98.579 129.636 96.473 C 126.418 94.367 120.179 90.951 115.773 88.883 C 107.761 85.121 105.953 83.383 109.035 82.405 C 110.765 81.855 112.975 82.453 120.44 85.49 C 133.146 90.658 143.237 99.068 138.784 100.777 C 138.189 101.005 137.651 101.168 137.588 101.138 C 137.525 101.108 137.026 100.908 136.48 100.693 L 136.48 100.693 Z M 136.446 84.062 C 136.446 81.46 148.081 62.875 157.617 50.245 C 160.456 46.484 163.295 42.638 163.926 41.697 C 164.85 40.317 165.008 40.251 164.742 41.355 C 164.56 42.108 162.724 45.185 160.661 48.194 C 153.423 58.749 145.486 70.827 141.223 77.77 C 138.856 81.625 136.813 84.78 136.683 84.78 C 136.553 84.78 136.446 84.457 136.446 84.062 L 136.446 84.062 Z M 102.329 63.247 C 98.859 60.471 97.733 60.333 94.021 62.227 C 91.859 63.329 91.313 63.411 91.313 62.629 C 91.313 61.474 94.795 58.399 96.839 57.75 C 99.458 56.919 102.873 58.102 105.748 60.838 C 110.48 65.339 107.536 67.413 102.329 63.247 L 102.329 63.247 Z M 118.796 198.982 C 119.431 197.665 120.149 195.774 120.39 194.779 C 120.788 193.146 120.576 192.89 118.21 192.139 C 116.768 191.681 114.852 190.844 113.952 190.277 C 112.455 189.335 112.254 189.357 111.61 190.524 C 111.223 191.227 109.671 192.938 108.161 194.328 L 105.415 196.855 L 110.502 199.238 C 113.3 200.549 116.051 201.566 116.615 201.498 C 117.179 201.431 118.16 200.298 118.796 198.982 L 118.796 198.982 Z M 106.903 193.533 C 111.371 190.296 111.571 189.367 108.646 185.431 C 107.268 183.577 105.805 181.046 105.394 179.806 C 104.681 177.653 104.36 177.481 98.151 175.928 C 94.578 175.034 91.193 173.816 90.629 173.22 C 89.483 172.012 89.247 171.987 98.151 173.996 C 106.991 175.991 107.704 175.029 101.974 168.841 C 99.939 166.643 97.728 163.606 97.06 162.091 C 95.888 159.435 95.798 159.38 94.53 160.525 C 92.287 162.552 89.944 168.02 89.5 172.264 C 88.944 177.584 90.087 182.02 93.185 186.57 C 95.559 190.056 101.75 195.528 103.348 195.551 C 103.762 195.557 105.362 194.649 106.903 193.533 L 106.903 193.533 Z M 134.345 186.376 C 135.125 185.67 135.744 184.756 135.72 184.344 C 135.697 183.932 133.958 182.743 131.856 181.702 C 128.257 179.919 127.961 179.875 126.765 180.957 C 126.067 181.589 124.805 182.449 123.962 182.868 C 122.195 183.745 121.533 186.567 122.881 187.479 C 124.527 188.592 132.772 187.799 134.345 186.376 L 134.345 186.376 Z M 121.025 184.857 C 121.322 183.677 121.168 182.843 120.587 182.474 C 119.146 181.56 118.317 181.784 116.677 183.529 C 115.206 185.095 115.192 185.208 116.387 185.902 C 118.682 187.237 120.533 186.82 121.025 184.857 L 121.025 184.857 Z M 115.649 182.35 C 117.199 181.016 117.397 180.478 116.884 178.981 C 116.548 178.002 114.888 176.106 113.196 174.767 L 110.118 172.334 L 109.535 174.729 C 108.825 177.64 109.286 179.71 111.179 182.117 C 112.927 184.34 113.312 184.36 115.649 182.35 Z M 138.55 180.039 C 139.265 178.158 138.613 173.559 137.643 173.638 C 137.361 173.661 135.822 173.684 134.224 173.69 C 130.671 173.703 129.851 174.181 129.245 176.598 C 128.805 178.351 129.019 178.589 132.439 180.142 C 137.143 182.279 137.702 182.269 138.55 180.038 L 138.55 180.039 Z M 124.44 176.947 C 126.08 174.606 125.777 171.941 123.684 170.295 C 121.806 168.818 118.864 167.783 118.259 168.388 C 117.384 169.264 118.911 172.225 120.435 172.608 C 122.44 173.111 122.576 174.116 120.718 174.705 C 119.176 175.195 118.948 176.423 120.171 177.646 C 121.443 178.918 123.269 178.619 124.44 176.947 L 124.44 176.947 Z M 116.947 172.141 C 116.687 170.542 116.275 169.026 116.032 168.771 C 115.449 168.16 111.144 170.001 111.144 170.862 C 111.144 171.753 115.348 175.03 116.504 175.04 C 117.199 175.046 117.305 174.349 116.947 172.141 L 116.947 172.141 Z M 135.25 171.941 C 136.66 171.685 137.814 171.19 137.814 170.841 C 137.814 168.96 132.311 160.665 131.086 160.699 C 130.837 160.706 129.611 161.942 128.362 163.447 L 126.089 166.184 L 127.849 168.274 C 128.816 169.424 129.608 170.99 129.608 171.755 C 129.608 172.849 129.935 173.066 131.147 172.775 C 131.993 172.571 133.839 172.196 135.25 171.941 L 135.25 171.941 Z M 108.305 168.322 C 109.303 167.255 110.468 166.255 110.895 166.099 C 111.346 165.934 111.878 163.163 112.164 159.49 L 112.657 153.164 L 109.958 153.164 C 106.446 153.164 101.528 154.666 98.892 156.543 L 96.798 158.034 L 98.103 160.593 C 99.322 162.981 105.378 170.26 106.146 170.26 C 106.337 170.26 107.308 169.388 108.305 168.322 L 108.305 168.322 Z M 127.178 162.211 C 129.765 159.321 129.78 159.274 128.504 157.848 C 126.717 155.85 121.987 153.929 117.582 153.411 L 113.88 152.976 L 113.88 156.746 C 113.88 158.819 113.692 161.451 113.464 162.594 L 113.048 164.673 L 117.131 164.303 C 119.545 164.084 121.742 164.239 122.505 164.681 C 124.149 165.634 124.08 165.67 127.178 162.211 L 127.178 162.211 Z M 167.72 141.197 C 167.393 131.816 165.975 126.706 161.95 120.417 C 159.806 117.065 159.426 116.752 158.96 117.946 C 157.5 121.683 159.251 145.322 161.135 147.317 C 161.473 147.675 161.749 148.768 161.749 149.747 C 161.749 151.088 162.383 151.891 164.313 152.996 L 166.878 154.465 L 167.442 151.934 C 167.752 150.542 167.877 145.71 167.72 141.197 L 167.72 141.197 Z M 74.254 70.52 C 78.522 67.783 82.654 60.503 84.136 53.109 C 84.348 52.051 86.31 49.263 88.496 46.914 C 90.682 44.564 93.266 41.275 94.24 39.605 C 96.507 35.716 99.519 26.725 99.519 23.847 L 99.519 21.624 L 95.788 25.446 C 91.432 29.906 86.443 32.123 80.759 32.123 C 77.884 32.123 75.989 31.568 71.956 29.541 L 66.817 26.958 C 68.414 29.614 69.111 32.559 69.182 35.652 C 69.157 43.367 65.53 47.906 58.434 50.263 C 51.554 52.549 44.14 49.213 41.146 44.572 C 37.458 38.853 37.397 33.667 41.512 27.455 C 44.582 22.82 47.89 21.107 53.224 20.678 C 57.472 20.337 57.785 20.432 66.409 24.656 C 76.624 29.66 80.478 30.362 86.629 28.341 C 89.496 27.398 91.285 26.113 94.903 22.397 C 100.377 16.775 100.689 15.109 97.521 8.413 C 94.219 1.434 91.786 1.195 84.485 7.132 C 75.814 14.183 70.716 15.711 55.867 15.711 C 36.494 15.711 28.818 19.32 20.029 32.56 C 15.263 39.74 15.226 39.959 18.882 39.374 C 22.835 38.742 26.178 36.688 32.835 30.8 C 35.839 28.143 38.542 25.969 38.842 25.969 C 40.465 25.969 34.472 32.342 28.741 36.712 C 25.709 39.023 20.511 41.013 17.506 41.013 C 15.381 41.013 14.722 41.996 14.722 45.165 C 14.722 46.969 15.241 47.414 20.35 49.982 C 23.445 51.539 29.523 53.753 33.856 54.903 C 41.331 56.886 49.555 57.496 55.257 57.038 C 67.319 56.07 68.832 56.471 68.662 57.354 C 68.279 59.342 63.346 61.056 53.701 61.048 C 40.2 61.036 27.674 57.848 19.193 52.263 C 17.754 51.315 17.346 51.226 17.782 51.955 C 21.742 58.576 29.909 63.723 43.279 68.025 C 52.066 70.852 59.835 72.326 66.389 72.409 C 70.585 72.462 71.609 72.216 74.254 70.52 L 74.254 70.52 Z M 59.128 45.91 C 64.944 43.099 67.63 32.172 59.242 26.359 C 55.141 23.517 49.605 23.265 46.741 26.066 C 42.813 29.908 40.821 36.995 44.013 42.108 C 47.12 47.083 53.302 48.546 59.128 45.91 Z M 49.467 43.243 C 46.638 39.767 46.633 36.506 48.782 34.004 C 50.489 32.017 51.114 32.662 49.542 34.788 C 47.454 37.317 49.493 41.244 50.991 42.746 C 53.409 45.17 51.319 45.519 49.467 43.243 L 49.467 43.243 Z M 53.465 41.814 C 52.063 40.265 51.666 36.602 53.005 34.834 C 53.915 33.632 54.746 33.522 54.017 35.516 C 53.308 37.455 53.445 39.181 54.242 40.283 C 55.062 41.415 55.753 42.492 55.753 42.695 C 55.753 43.475 54.549 43.012 53.465 41.814 L 53.465 41.814 Z M 56.599 38.851 C 55.389 37.64 55.553 36.381 57.026 35.593 C 58.691 34.702 60.782 36.167 60.436 37.981 C 60.139 39.537 57.812 40.064 56.599 38.851 L 56.599 38.851 Z" style="fill: rgb(15, 14, 14);"/>
      <path d="M 82.966 39.913 C 84.046 37.579 88.206 38.225 88.112 40.578 C 88.063 41.802 86.098 42.81 84.523 42.852 C 83.072 42.89 81.952 42.106 82.966 39.913 Z M 78.661 47.25 C 79.668 44.451 83.03 45.114 83.337 47.613 C 83.489 48.857 81.931 49.889 80.527 50.058 C 79.108 50.228 77.846 49.516 78.661 47.25 Z M 75.954 38.514 C 76.887 35.956 81.206 36.256 79.918 39.511 C 79.183 41.368 77.416 42.372 76.365 41.985 C 75.574 41.694 75.189 40.613 75.954 38.514 Z" fill="#9dd245" paint-order="fill markers stroke"/>
    </g>
  </g>
</svg> 
